<svg width="100%" height="100%" viewBox="0 0 44 44" fill="none" xmlns="http://www.w3.org/2000/svg">
  <rect width="44" height="44" rx="12" fill="currentColor" />
  <path fill-rule="evenodd" clip-rule="evenodd"
    d="M33.0786 19.5393C33.0786 13.422 28.1196 8.46289 22.0022 8.46289C15.8849 8.46289 10.9258 13.422 10.9258 19.5393C10.9258 24.124 14.4205 30.16 21.2638 35.2925C21.7014 35.6207 22.3031 35.6207 22.7406 35.2925C29.5839 30.16 33.0786 24.124 33.0786 19.5393ZM18.3101 19.5393C18.3101 17.5002 19.9631 15.8472 22.0022 15.8472C24.0413 15.8472 25.6944 17.5002 25.6944 19.5393C25.6944 21.5784 24.0413 23.2315 22.0022 23.2315C19.9631 23.2315 18.3101 21.5784 18.3101 19.5393Z"
    fill="white" />
</svg>
