<svg width="24" height="24" viewBox="0 0 24 24" fill="none" xmlns="http://www.w3.org/2000/svg">
<path d="M6.31427 20.0781C6.65461 20.3438 7.08625 20.2524 7.6009 19.8789L11.992 16.6499L16.3914 19.8789C16.9061 20.2524 17.3294 20.3438 17.678 20.0781C18.0184 19.8208 18.0931 19.3975 17.8856 18.7915L16.1507 13.6284L20.5833 10.4409C21.098 10.0757 21.3055 9.69385 21.1727 9.27881C21.0399 8.88037 20.6497 8.68115 20.0106 8.68945L14.5736 8.72266L12.9217 3.53467C12.7225 2.92041 12.4236 2.61328 11.992 2.61328C11.5687 2.61328 11.2698 2.92041 11.0706 3.53467L9.41877 8.72266L3.98175 8.68945C3.34259 8.68115 2.95246 8.88037 2.81965 9.27881C2.67853 9.69385 2.89435 10.0757 3.409 10.4409L7.84162 13.6284L6.10675 18.7915C5.89924 19.3975 5.97394 19.8208 6.31427 20.0781Z" fill="#F3C032"/>
</svg>
