<svg width="24" height="24" viewBox="0 0 24 24" fill="none" xmlns="http://www.w3.org/2000/svg">
<g clip-path="url(#clip0_4263_26791)">
<path d="M12 0.523438C18.3378 0.523454 23.4756 5.66126 23.4756 11.999C23.4756 18.3368 18.3378 23.4746 12 23.4746C5.66223 23.4746 0.524426 18.3368 0.524414 11.999C0.524414 5.66125 5.66223 0.523438 12 0.523438Z" fill="#FC3F1D" stroke="white"/>
<path d="M16.3336 19.5182H13.7047V6.51602H12.5336C10.3869 6.51602 9.26246 7.58936 9.26246 9.19158C9.26246 11.0094 10.038 11.8516 11.6425 12.9249L12.9647 13.816L9.16468 19.516H6.33801L9.75801 14.4271C7.79135 13.0227 6.68468 11.6516 6.68468 9.33824C6.68468 6.44713 8.70024 4.48047 12.5158 4.48047H16.3158V19.5138H16.3336V19.5182Z" fill="white"/>
</g>
<defs>
<clipPath id="clip0_4263_26791">
<rect width="24" height="24" fill="white"/>
</clipPath>
</defs>
</svg>
