<svg width="32" height="32" viewBox="0 0 32 32" fill="none" xmlns="http://www.w3.org/2000/svg">
<g clip-path="url(#clip0_3378_4441)">
<path d="M15.9987 31.9671C24.8172 31.9671 31.9661 24.8182 31.9661 15.9996C31.9661 7.18108 24.8172 0.0322266 15.9987 0.0322266C7.1801 0.0322266 0.03125 7.18108 0.03125 15.9996C0.03125 24.8182 7.1801 31.9671 15.9987 31.9671Z" fill="#13151A"/>
<path d="M21.7805 26.024H18.2753V8.68771H16.7139C13.8516 8.68771 12.3524 10.1188 12.3524 12.2551C12.3524 14.6788 13.3865 15.8018 15.5257 17.2329L17.2887 18.421L12.222 26.021H8.45312L13.0131 19.2358C10.3909 17.3633 8.91535 15.5351 8.91535 12.4507C8.91535 8.59585 11.6028 5.97363 16.6902 5.97363H21.7568V26.0181H21.7805V26.024Z" fill="white"/>
</g>
<defs>
<clipPath id="clip0_3378_4441">
<rect width="32" height="32" fill="white"/>
</clipPath>
</defs>
</svg>
