<svg width="32" height="32" viewBox="0 0 32 32" fill="none" xmlns="http://www.w3.org/2000/svg">
<path d="M27.7 8.1001H4.3C3.58203 8.1001 3 8.68213 3 9.4001C3 10.1181 3.58203 10.7001 4.3 10.7001H27.7C28.418 10.7001 29 10.1181 29 9.4001C29 8.68213 28.418 8.1001 27.7 8.1001Z" fill="#13151A"/>
<path d="M27.7 14.7002H4.3C3.58203 14.7002 3 15.2822 3 16.0002C3 16.7182 3.58203 17.3002 4.3 17.3002H27.7C28.418 17.3002 29 16.7182 29 16.0002C29 15.2822 28.418 14.7002 27.7 14.7002Z" fill="#13151A"/>
<path d="M27.7 21.3H4.3C3.58203 21.3 3 21.8821 3 22.6C3 23.318 3.58203 23.9 4.3 23.9H27.7C28.418 23.9 29 23.318 29 22.6C29 21.8821 28.418 21.3 27.7 21.3Z" fill="#13151A"/>
</svg>
