<svg width="32" height="32" viewBox="0 0 32 32" fill="none" xmlns="http://www.w3.org/2000/svg">
<path d="M7.01948 7.0181C7.48811 6.54947 8.2479 6.54947 8.71653 7.0181L16.0013 14.3029L23.2861 7.01813C23.7548 6.5495 24.5146 6.5495 24.9832 7.01813C25.4518 7.48676 25.4518 8.24656 24.9832 8.71519L17.6984 16L24.9832 23.2848C25.4518 23.7534 25.4518 24.5132 24.9832 24.9819C24.5145 25.4505 23.7547 25.4505 23.2861 24.9819L16.0013 17.697L8.7165 24.9818C8.24787 25.4505 7.48807 25.4504 7.01944 24.9818C6.55081 24.5132 6.55081 23.7534 7.01944 23.2848L14.3043 16L7.01947 8.71515C6.55084 8.24652 6.55084 7.48672 7.01948 7.0181Z" fill="#13151A"/>
</svg>
