<svg width="24" height="24" viewBox="0 0 24 24" fill="none" xmlns="http://www.w3.org/2000/svg">
<rect x="2" y="2" width="20" height="20" rx="10" fill="#FFDD04"/>
<path d="M11.9995 16.027C12.3168 16.027 12.5991 15.9827 12.8465 15.894C13.0938 15.8053 13.3038 15.6817 13.4765 15.523C13.6491 15.3597 13.7798 15.166 13.8685 14.942C13.9571 14.718 14.0015 14.473 14.0015 14.207C14.0015 13.8803 13.9478 13.6003 13.8405 13.367C13.7331 13.129 13.5885 12.9353 13.4065 12.786C13.2245 12.632 13.0121 12.52 12.7695 12.45C12.5268 12.3753 12.2701 12.338 11.9995 12.338C11.7241 12.338 11.4651 12.3753 11.2225 12.45C10.9798 12.52 10.7675 12.632 10.5855 12.786C10.4035 12.9353 10.2588 13.129 10.1515 13.367C10.0488 13.6003 9.99745 13.8803 9.99745 14.207C9.99745 14.473 10.0418 14.718 10.1305 14.942C10.2191 15.166 10.3498 15.3597 10.5225 15.523C10.6951 15.6817 10.9051 15.8053 11.1525 15.894C11.3998 15.9827 11.6821 16.027 11.9995 16.027ZM11.9995 7.886C11.7101 7.886 11.4558 7.93033 11.2365 8.019C11.0218 8.103 10.8421 8.21967 10.6975 8.369C10.5528 8.51833 10.4431 8.691 10.3685 8.887C10.2985 9.083 10.2635 9.293 10.2635 9.517C10.2635 9.73633 10.2938 9.951 10.3545 10.161C10.4198 10.3663 10.5201 10.5507 10.6555 10.714C10.7955 10.8727 10.9751 11.001 11.1945 11.099C11.4138 11.197 11.6821 11.246 11.9995 11.246C12.3121 11.246 12.5781 11.197 12.7975 11.099C13.0215 11.001 13.2011 10.8727 13.3365 10.714C13.4765 10.5507 13.5768 10.3663 13.6375 10.161C13.7028 9.951 13.7355 9.73633 13.7355 9.517C13.7355 9.293 13.6981 9.083 13.6235 8.887C13.5535 8.691 13.4461 8.51833 13.3015 8.369C13.1568 8.21967 12.9748 8.103 12.7555 8.019C12.5408 7.93033 12.2888 7.886 11.9995 7.886ZM13.5045 11.757C14.1298 11.9437 14.6035 12.2447 14.9255 12.66C15.2521 13.0753 15.4155 13.6003 15.4155 14.235C15.4155 14.6737 15.3315 15.0703 15.1635 15.425C15.0001 15.7797 14.7668 16.083 14.4635 16.335C14.1648 16.5823 13.8055 16.7737 13.3855 16.909C12.9655 17.0443 12.5035 17.112 11.9995 17.112C11.4955 17.112 11.0335 17.0443 10.6135 16.909C10.1935 16.7737 9.83179 16.5823 9.52845 16.335C9.22979 16.083 8.99645 15.7797 8.82845 15.425C8.66512 15.0703 8.58345 14.6737 8.58345 14.235C8.58345 13.6003 8.74445 13.0753 9.06645 12.66C9.39312 12.2447 9.86912 11.9437 10.4945 11.757C9.97645 11.561 9.58679 11.2693 9.32545 10.882C9.06412 10.49 8.93345 10.0257 8.93345 9.489C8.93345 9.11567 9.00579 8.768 9.15045 8.446C9.29979 8.11933 9.50745 7.837 9.77345 7.599C10.0441 7.361 10.3685 7.17433 10.7465 7.039C11.1245 6.90367 11.5421 6.836 11.9995 6.836C12.4568 6.836 12.8745 6.90367 13.2525 7.039C13.6305 7.17433 13.9525 7.361 14.2185 7.599C14.4891 7.837 14.6968 8.11933 14.8415 8.446C14.9908 8.768 15.0655 9.11567 15.0655 9.489C15.0655 10.0257 14.9348 10.49 14.6735 10.882C14.4121 11.2693 14.0225 11.561 13.5045 11.757Z" fill="white"/>
</svg>
