<svg width="24" height="24" viewBox="0 0 24 24" fill="none" xmlns="http://www.w3.org/2000/svg">
<path fill-rule="evenodd" clip-rule="evenodd" d="M20.309 10.155C20.309 5.56697 16.5897 1.84766 12.0017 1.84766C7.41365 1.84766 3.69434 5.56697 3.69434 10.155C3.69434 13.5935 6.3154 18.1205 11.4478 21.9698C11.776 22.216 12.2273 22.216 12.5555 21.9698C17.6879 18.1205 20.309 13.5935 20.309 10.155ZM9.23255 10.155C9.23255 8.62564 10.4723 7.38587 12.0017 7.38587C13.531 7.38587 14.7708 8.62564 14.7708 10.155C14.7708 11.6843 13.531 12.9241 12.0017 12.9241C10.4723 12.9241 9.23255 11.6843 9.23255 10.155Z" fill="#13151A"/>
</svg>
