<svg width="24" height="24" viewBox="0 0 24 24" fill="none" xmlns="http://www.w3.org/2000/svg">
<path d="M12.5332 21.5391C17.4567 21.5391 21.5332 17.4538 21.5332 12.5391C21.5332 7.61553 17.4479 3.53906 12.5244 3.53906C7.60967 3.53906 3.5332 7.61553 3.5332 12.5391C3.5332 17.4538 7.6185 21.5391 12.5332 21.5391ZM10.5832 16.7126C10.1156 16.7126 9.85967 16.3685 9.85967 15.8832V9.13318C9.85967 8.63906 10.1067 8.30377 10.5744 8.30377H13.1156C14.8803 8.30377 16.0803 9.43318 16.0803 11.1097C16.0803 12.7861 14.8891 13.8979 13.1067 13.8979H11.3244V15.8832C11.3244 16.3861 11.0685 16.7126 10.5832 16.7126ZM11.3244 12.7861H12.9126C13.9803 12.7861 14.6332 12.142 14.6332 11.1097C14.6332 10.0685 13.9714 9.42436 12.9126 9.42436H11.3244V12.7861Z" fill="#13151A"/>
</svg>
