<svg width="32" height="32" viewBox="0 0 32 32" fill="none" xmlns="http://www.w3.org/2000/svg">
<path d="M10.9482 19.905C13.9099 22.8668 17.507 25.1521 20.4482 25.1521C21.7702 25.1521 22.9283 24.6909 23.8608 23.6661C24.404 23.0615 24.7422 22.3543 24.7422 21.6575C24.7422 21.1451 24.5475 20.6532 24.0658 20.3047L20.9196 18.0706C20.438 17.7427 20.0383 17.5787 19.6694 17.5787C19.2082 17.5787 18.788 17.8452 18.3166 18.3063L17.589 19.0237C17.4763 19.1364 17.3328 19.1877 17.1996 19.1877C17.0459 19.1877 16.8921 19.1262 16.7897 19.075C16.1543 18.7368 15.068 17.8042 14.0534 16.7999C13.0491 15.7956 12.1165 14.7093 11.7886 14.0739C11.7373 13.9611 11.6758 13.8177 11.6758 13.6639C11.6758 13.5307 11.7168 13.3975 11.8296 13.2848L12.5572 12.5367C13.0081 12.0652 13.2848 11.6553 13.2848 11.1839C13.2848 10.815 13.1106 10.4153 12.7724 9.93364L10.569 6.82846C10.2104 6.33655 9.70821 6.12134 9.15481 6.12134C8.47843 6.12134 7.78156 6.42878 7.17692 7.01292C6.18286 7.966 5.74219 9.14453 5.74219 10.446C5.74219 13.3872 7.98652 16.9536 10.9482 19.905Z" fill="#13151A"/>
</svg>
