<svg width="24" height="24" viewBox="0 0 24 24" fill="none" xmlns="http://www.w3.org/2000/svg">
<rect x="2" y="2" width="20" height="20" rx="10" fill="#933E90"/>
<path d="M15.5275 6.948V7.557C15.5275 7.73433 15.5065 7.879 15.4645 7.991C15.4271 8.09833 15.3898 8.19167 15.3525 8.271L11.2785 16.517C11.2131 16.6523 11.1221 16.7667 11.0055 16.86C10.8888 16.9533 10.7325 17 10.5365 17H9.55645L13.6935 8.873C13.7635 8.74233 13.8335 8.62333 13.9035 8.516C13.9735 8.404 14.0505 8.30133 14.1345 8.208H8.99645C8.90779 8.208 8.83079 8.17533 8.76545 8.11C8.70012 8.04467 8.66745 7.96767 8.66745 7.879V6.948H15.5275Z" fill="white"/>
</svg>
