<svg width="24" height="24" viewBox="0 0 24 24" fill="none" xmlns="http://www.w3.org/2000/svg">
<rect x="2" y="2" width="20" height="20" rx="10" fill="#B5CC05"/>
<path d="M11.0329 15.957V17H5.60091V15.957H7.72891V9.37C7.72891 9.16 7.73591 8.943 7.74991 8.719L6.04191 10.168C5.97657 10.2193 5.91124 10.252 5.84591 10.266C5.78057 10.28 5.71757 10.2823 5.65691 10.273C5.60091 10.2637 5.54957 10.245 5.50291 10.217C5.46091 10.1843 5.42591 10.1517 5.39791 10.119L4.97091 9.524L7.98091 6.927H9.09391V15.957H11.0329ZM19.714 11.974C19.714 12.8513 19.6183 13.612 19.427 14.256C19.2403 14.9 18.9813 15.4343 18.65 15.859C18.3233 16.279 17.936 16.5917 17.488 16.797C17.0447 17.0023 16.5663 17.105 16.053 17.105C15.5397 17.105 15.059 17.0023 14.611 16.797C14.1677 16.5917 13.7827 16.279 13.456 15.859C13.1293 15.4343 12.8727 14.9 12.686 14.256C12.4993 13.612 12.406 12.8513 12.406 11.974C12.406 11.0967 12.4993 10.336 12.686 9.692C12.8727 9.04333 13.1293 8.509 13.456 8.089C13.7827 7.66433 14.1677 7.34933 14.611 7.144C15.059 6.93867 15.5397 6.836 16.053 6.836C16.5663 6.836 17.0447 6.93867 17.488 7.144C17.936 7.34933 18.3233 7.66433 18.65 8.089C18.9813 8.509 19.2403 9.04333 19.427 9.692C19.6183 10.336 19.714 11.0967 19.714 11.974ZM18.3 11.974C18.3 11.218 18.237 10.5857 18.111 10.077C17.9897 9.56833 17.824 9.16 17.614 8.852C17.4087 8.53933 17.1707 8.31767 16.9 8.187C16.6293 8.05633 16.347 7.991 16.053 7.991C15.759 7.991 15.4767 8.05633 15.206 8.187C14.9353 8.31767 14.695 8.53933 14.485 8.852C14.2797 9.16 14.1163 9.56833 13.995 10.077C13.8737 10.5857 13.813 11.218 13.813 11.974C13.813 12.73 13.8737 13.3623 13.995 13.871C14.1163 14.3797 14.2797 14.788 14.485 15.096C14.695 15.404 14.9353 15.6233 15.206 15.754C15.4767 15.8847 15.759 15.95 16.053 15.95C16.347 15.95 16.6293 15.8847 16.9 15.754C17.1707 15.6233 17.4087 15.404 17.614 15.096C17.824 14.788 17.9897 14.3797 18.111 13.871C18.237 13.3623 18.3 12.73 18.3 11.974Z" fill="white"/>
</svg>
