<svg width="24" height="24" viewBox="0 0 24 24" fill="none" xmlns="http://www.w3.org/2000/svg">
<g clip-path="url(#clip0_3893_17444)">
<path d="M23.9512 6.7927L20.5558 17.2114C20.3311 17.8536 20.0582 18.0462 19.392 18.0462H0.649486C0.0795861 18.0462 -0.105029 17.7894 0.0555058 17.2355L3.43477 6.80875C3.63544 6.18266 3.90032 5.99805 4.5826 5.99805H23.3411C23.9191 5.99805 24.1037 6.2549 23.9512 6.7927Z" fill="#E94282"/>
<path d="M13.5726 9.36105L14.4074 10.2119C14.8729 9.77042 15.515 9.45738 16.1251 9.45738C16.8074 9.45738 17.3451 9.84266 17.3451 10.4928C17.3451 11.0627 17.0482 11.456 15.6997 12.7965L13.8535 14.6266V15.6059H18.5652L18.9746 14.458H15.6515V14.442L16.9599 13.1898C18.1799 12.0259 18.6615 11.3597 18.6615 10.3805C18.6615 9.27276 17.7946 8.27744 16.1893 8.27744C15.1779 8.26942 14.2067 8.75102 13.5726 9.36105ZM12.4087 12.0019C12.4087 9.85871 10.9478 8.38179 8.67625 8.38179H5.38528L5 9.60186H6.20401V15.6059H8.67625C10.9559 15.5978 12.4087 14.1209 12.4087 12.0019ZM10.9719 12.0019C10.9719 13.5912 9.97659 14.4179 8.64415 14.4179H7.55251V9.57778H8.64415C9.97659 9.57778 10.9719 10.3965 10.9719 12.0019Z" fill="white"/>
</g>
<defs>
<clipPath id="clip0_3893_17444">
<rect width="24" height="12.0401" fill="white" transform="translate(0 6)"/>
</clipPath>
</defs>
</svg>
