<svg width="160" height="96" viewBox="0 0 160 96" fill="none" xmlns="http://www.w3.org/2000/svg">
<path d="M15.0106 40.5078H11.4647L3.32875 50.6472V40.5078H0.0273438V55.1807H3.01836L7.82468 49.2927L11.4271 55.1807H15.227L9.94097 46.7062L15.0106 40.5078Z" fill="white"/>
<path d="M23.0888 40.5078L16.2227 55.1807H19.7592L21.1513 52.0862H29.2778L30.6698 55.1807H34.2064L27.3402 40.5078H23.0794H23.0888ZM22.374 49.3868L25.2239 43.0756L28.0739 49.3868H22.3834H22.374Z" fill="white"/>
<path d="M39.5484 44.1288C39.6142 45.2198 39.6424 46.198 39.6424 47.0633C39.6424 48.9633 39.4355 50.3365 39.0405 51.183C38.636 52.0202 37.9776 52.4434 37.0653 52.4434C36.5856 52.4434 36.0588 52.3305 35.5039 52.1142V54.8889C35.8707 55.0676 36.2752 55.2087 36.7172 55.3122C37.1593 55.4062 37.6014 55.4627 38.0434 55.4627C39.1627 55.4627 40.0751 55.1899 40.7617 54.6444C41.4577 54.0988 41.9656 53.2429 42.2854 52.086C42.6146 50.9291 42.7745 49.4242 42.7745 47.5713C42.7745 46.8 42.7557 45.9817 42.7087 45.107C42.6805 44.5802 42.6428 44.0253 42.5864 43.461H49.7348V55.1993H53.0456V40.5264H39.238C39.3791 41.8432 39.4825 43.0471 39.5484 44.1476V44.1288Z" fill="white"/>
<path d="M59.3114 51.9264V40.5078H56.0664V55.1807H60.2708L68.6607 43.5835V55.1807H71.9056V40.5078H67.579L59.3114 51.9264Z" fill="white"/>
<path d="M73.7383 43.4424H79.5886V55.1807H82.8995V43.4424H88.7216V40.5078H73.7383V43.4424Z" fill="white"/>
<path d="M102.311 46.2923H93.9023V40.5078H90.582V55.1807H93.9023V49.2081H102.311V55.1807H105.641V40.5078H102.311V46.2923Z" fill="white"/>
<path d="M111.897 51.9264V40.5078H108.652V55.1807H112.857L121.247 43.5835V55.1807H124.501V40.5078H120.174L111.897 51.9264Z" fill="white"/>
<path d="M142.499 40.5078H138.953L130.817 50.6472V40.5078H127.516V55.1807H130.507L135.313 49.2927L138.915 55.1807H142.706L137.429 46.7062L142.499 40.5078Z" fill="white"/>
<path d="M155.674 40.5078L147.407 51.9264V40.5078H144.152V55.1807H148.357L156.756 43.5835V55.1807H160.001V40.5078H155.674Z" fill="white"/>
<path d="M150.031 29.786C146.513 28.93 143.193 28.1117 142.167 26.1836C141.744 25.3935 141.725 24.4623 142.12 23.3995C143.522 19.5525 143.512 16.5803 142.102 14.5675C140.54 12.3478 137.258 11.2191 132.338 11.2191C125.961 11.2191 118.418 13.119 114.439 14.2665C113.583 14.3794 112.812 14.4358 112.154 14.4358C108.109 14.4358 108.043 12.2443 107.959 9.70475C107.865 6.72313 107.752 3.00788 101.554 0.571794C100.585 0.18616 99.5501 -0.00195312 98.4873 -0.00195312C93.2389 -0.00195312 87.7365 4.60685 82.8738 8.67012C78.914 11.9809 75.4997 14.8403 72.7908 14.8403C71.1543 14.8403 69.9315 13.8056 69.0568 11.6235C67.9657 6.76076 64.6361 3.85439 60.159 3.85439C57.3843 3.85439 54.4121 4.97367 51.5527 7.08996C50.3206 8.00231 48.5993 9.91167 46.784 11.9433C43.1346 16.016 38.9867 20.6248 35.9392 20.6248C34.82 20.6248 33.9358 20.0134 33.2868 18.8001C32.8166 17.9253 32.4591 17.0882 32.1393 16.3546C30.9918 13.7116 30.3052 12.1126 26.5806 12.1126C26.3642 12.1126 26.1291 12.1126 25.8845 12.1314C18.6045 12.4794 13.2527 19.1575 8.08892 25.6098C5.52116 28.8172 2.86874 32.128 0 34.6299H10.224C11.2963 34.5923 13.4784 34.47 14.6071 34.1314C16.1402 33.6611 17.7486 32.6547 19.1971 30.1057C20.6455 27.5568 21.0782 26.6538 21.1911 26.4469C21.3039 26.24 21.6614 26.193 21.5297 26.7009C21.398 27.2088 19.6203 31.4978 19.404 32.0904C19.1877 32.6829 18.9055 33.4918 19.0654 33.9151C19.2253 34.3383 19.6203 34.6299 20.3352 34.6299C20.3352 34.6299 28.4617 34.6205 35.8264 34.6111C37.4065 34.5641 40.4446 34.4136 41.9119 33.8868C43.9435 33.1532 47.8751 29.8894 49.5117 28.234C51.6844 26.0331 55.4843 21.4431 55.4843 21.4431C55.4843 21.4431 55.8417 20.9164 56.1333 21.1891C56.4249 21.4619 56.0299 21.8381 56.0299 21.8381C56.0299 21.8381 48.5899 31.1874 47.6588 32.3161C46.7276 33.4448 46.4736 33.9527 46.6147 34.2537C46.7558 34.5546 46.8687 34.6299 48.4018 34.6299H63.9589C66.0752 34.5829 73.4869 34.3853 75.4527 33.9527C77.7477 33.4448 80.2966 31.1874 83.6921 27.1994C87.0875 23.2114 91.1696 18.2357 91.1696 18.2357C91.1696 18.2357 91.3766 17.8971 91.5553 17.8971C91.8845 17.8971 91.8939 18.1417 91.5553 18.659C91.2167 19.1763 83.504 28.9677 81.7545 32.429C81.5758 32.7676 81.0397 33.8022 81.4535 34.2537C81.8486 34.6863 82.9396 34.6393 83.6638 34.6393H104.921C105.316 34.6393 107.931 33.5482 111.486 31.7423C115.182 29.8706 119.528 27.2276 119.528 27.2276L123.629 24.8197C123.629 24.8197 124.09 24.4717 124.24 24.6786C124.391 24.8668 124.221 24.989 123.497 25.5816C122.773 26.1742 112.474 33.125 112.981 32.7676C113.489 32.4101 111.411 33.8022 111.345 34.169C111.26 34.6393 111.674 34.6205 112.248 34.6299H159.944C158.355 31.8176 153.915 30.7359 149.974 29.7766L150.031 29.786Z" fill="white"/>
<path d="M150.031 66.1703C146.513 67.0262 143.193 67.8445 142.167 69.7727C141.744 70.5627 141.725 71.4939 142.12 72.5568C143.522 76.4037 143.512 79.3759 142.102 81.3887C140.54 83.6085 137.258 84.7372 132.338 84.7372C125.961 84.7372 118.418 82.8372 114.439 81.6897C113.583 81.5768 112.812 81.5204 112.154 81.5204C108.109 81.5204 108.043 83.7119 107.959 86.2515C107.865 89.2331 107.752 92.9483 101.554 95.3844C100.585 95.7701 99.5501 95.9582 98.4873 95.9582C93.2389 95.9582 87.7365 91.3494 82.8738 87.2861C78.914 83.9753 75.4997 81.116 72.7908 81.116C71.1542 81.116 69.9315 82.1506 69.0568 84.3327C67.9657 89.1955 64.6361 92.1018 60.159 92.1018C57.3843 92.1018 54.4121 90.9826 51.5527 88.8663C50.3206 87.9539 48.5993 86.0446 46.784 84.0129C43.1346 79.9402 38.9867 75.3314 35.9392 75.3314C34.82 75.3314 33.9358 75.9428 33.2868 77.1562C32.8165 78.0309 32.4591 78.868 32.1393 79.6016C30.9918 82.2446 30.3052 83.8436 26.5806 83.8436C26.3642 83.8436 26.1291 83.8436 25.8845 83.8248C18.6045 83.4768 13.2527 76.7987 8.08892 70.3464C5.52116 67.1391 2.86874 63.8283 0 61.3263H10.224C11.2963 61.364 13.4784 61.4862 14.6071 61.8248C16.1402 62.2951 17.7486 63.3015 19.1971 65.8505C20.6455 68.3994 21.0782 69.3024 21.1911 69.5093C21.3039 69.7162 21.6614 69.7633 21.5297 69.2553C21.398 68.7474 19.6203 64.4584 19.404 63.8659C19.1877 63.2733 18.9055 62.4644 19.0654 62.0412C19.2253 61.6179 19.6203 61.3263 20.3352 61.3263C20.3352 61.3263 28.4617 61.3357 35.8264 61.3451C37.4065 61.3922 40.4446 61.5427 41.9119 62.0694C43.9435 62.803 47.8751 66.0668 49.5117 67.7222C51.6844 69.9232 55.4843 74.5131 55.4843 74.5131C55.4843 74.5131 55.8417 75.0399 56.1333 74.7671C56.4249 74.4943 56.0299 74.1181 56.0299 74.1181C56.0299 74.1181 48.5899 64.7688 47.6588 63.6401C46.7276 62.5114 46.4736 62.0035 46.6147 61.7026C46.7558 61.4016 46.8687 61.3263 48.4018 61.3263H63.9589C66.0752 61.3734 73.4869 61.5709 75.4527 62.0035C77.7477 62.5115 80.2966 64.7688 83.6921 68.7568C87.0875 72.7449 91.1696 77.7205 91.1696 77.7205C91.1696 77.7205 91.3765 78.0591 91.5553 78.0591C91.8845 78.0591 91.8939 77.8146 91.5553 77.2972C91.2167 76.7799 83.504 66.9886 81.7545 63.5273C81.5758 63.1887 81.0397 62.154 81.4535 61.7026C81.8485 61.2699 82.9396 61.3169 83.6638 61.3169H104.921C105.316 61.3169 107.931 62.408 111.486 64.2139C115.182 66.0856 119.528 68.7286 119.528 68.7286L123.629 71.1365C123.629 71.1365 124.09 71.4845 124.24 71.2776C124.391 71.0895 124.221 70.9672 123.497 70.3746C122.773 69.7821 112.474 62.8312 112.981 63.1887C113.489 63.5461 111.411 62.154 111.345 61.7872C111.26 61.3169 111.674 61.3357 112.248 61.3263H159.944C158.355 64.1386 153.915 65.2203 149.974 66.1797L150.031 66.1703Z" fill="white"/>
</svg>
