<svg width="25" height="24" viewBox="0 0 25 24" fill="none" xmlns="http://www.w3.org/2000/svg">
<g clip-path="url(#clip0_3504_7554)">
<path d="M12.333 23.9755C18.9469 23.9755 24.3085 18.6139 24.3085 12C24.3085 5.38606 18.9469 0.0244141 12.333 0.0244141C5.71906 0.0244141 0.357422 5.38606 0.357422 12C0.357422 18.6139 5.71906 23.9755 12.333 23.9755Z" fill="#FC3F1D"/>
<path d="M16.6665 19.5182H14.0376V6.51602H12.8665C10.7198 6.51602 9.59534 7.58936 9.59534 9.19158C9.59534 11.0094 10.3709 11.8516 11.9753 12.9249L13.2976 13.816L9.49756 19.516H6.6709L10.0909 14.4271C8.12423 13.0227 7.01756 11.6516 7.01756 9.33824C7.01756 6.44713 9.03312 4.48047 12.8487 4.48047H16.6487V19.5138H16.6665V19.5182Z" fill="white"/>
</g>
<defs>
<clipPath id="clip0_3504_7554">
<rect width="24" height="24" fill="white" transform="translate(0.333008)"/>
</clipPath>
</defs>
</svg>
