<svg width="24" height="24" viewBox="0 0 24 24" fill="none" xmlns="http://www.w3.org/2000/svg">
<path fill-rule="evenodd" clip-rule="evenodd" d="M20.31 10.155C20.31 5.56697 16.5906 1.84766 12.0026 1.84766C7.41463 1.84766 3.69531 5.56697 3.69531 10.155C3.69531 13.5935 6.31637 18.1205 11.4488 21.9698C11.777 22.216 12.2283 22.216 12.5565 21.9698C17.6889 18.1205 20.31 13.5935 20.31 10.155ZM9.23353 10.155C9.23353 8.62564 10.4733 7.38587 12.0026 7.38587C13.532 7.38587 14.7717 8.62564 14.7717 10.155C14.7717 11.6843 13.532 12.9241 12.0026 12.9241C10.4733 12.9241 9.23353 11.6843 9.23353 10.155Z" fill="white"/>
</svg>
