<svg width="18" height="18" viewBox="0 0 18 18" fill="none" xmlns="http://www.w3.org/2000/svg">
<path d="M3.18392 4.42719C3.06771 4.99164 3.02344 5.72765 3.02344 6.22016C3.02344 10.3595 5.486 13.0932 9.24902 13.0932C11.1195 13.0932 12.2318 12.241 12.752 11.6378C13.2168 12.2742 13.4824 12.977 13.7757 13.8956C13.8587 14.1612 14.0413 14.2553 14.235 14.2553C14.6445 14.2553 14.971 13.9011 14.971 13.4142C14.971 12.6505 13.8753 11.3224 13.3053 10.7856C10.8815 8.54991 7.19043 9.8725 6.23861 7.4044C6.16667 7.21625 6.36589 7.05024 6.5485 7.23839C8.45768 9.14757 10.9147 7.53722 13.3053 9.73969C13.4935 9.90571 13.7148 9.81716 13.748 9.61795C13.7757 9.45746 13.7923 9.20291 13.7923 8.95942C13.7923 6.2589 11.9108 4.95844 9.26562 4.95844C8.38021 4.95844 7.34538 5.17426 6.5319 5.17426C5.64095 5.17426 4.63932 5.10232 3.84245 4.25011C3.61556 4.01768 3.27246 4.05089 3.18392 4.42719Z" fill="#935628"/>
</svg>
