<svg width="24" height="24" viewBox="0 0 24 24" fill="none" xmlns="http://www.w3.org/2000/svg">
<path d="M8.52148 15.7661C10.9204 18.165 13.834 20.0161 16.2163 20.0161C17.2871 20.0161 18.2251 19.6426 18.9805 18.8125C19.4204 18.3228 19.6943 17.75 19.6943 17.1855C19.6943 16.7705 19.5366 16.3721 19.1465 16.0898L16.5981 14.2803C16.208 14.0146 15.8843 13.8818 15.5854 13.8818C15.2119 13.8818 14.8716 14.0977 14.4897 14.4712L13.9004 15.0522C13.8091 15.1436 13.6929 15.1851 13.585 15.1851C13.4604 15.1851 13.3359 15.1353 13.2529 15.0938C12.7383 14.8198 11.8584 14.0645 11.0366 13.251C10.2231 12.4375 9.46777 11.5576 9.20215 11.043C9.16064 10.9517 9.11084 10.8354 9.11084 10.7109C9.11084 10.603 9.14404 10.4951 9.23535 10.4038L9.82471 9.79785C10.1899 9.41602 10.4141 9.08398 10.4141 8.70215C10.4141 8.40332 10.2729 8.07959 9.99902 7.68945L8.21436 5.17432C7.92383 4.77588 7.51709 4.60156 7.06885 4.60156C6.521 4.60156 5.95654 4.85059 5.4668 5.32373C4.66162 6.0957 4.30469 7.05029 4.30469 8.10449C4.30469 10.4868 6.12256 13.3755 8.52148 15.7661Z" fill="white"/>
</svg>
