<svg width="74" height="44" viewBox="0 0 74 44" fill="none" xmlns="http://www.w3.org/2000/svg">
<path d="M7.2111 18.5645H5.58587L1.85689 23.2117V18.5645H0.34375V25.2895H1.71463L3.91753 22.5909L5.56863 25.2895H7.31025L4.88749 21.4054L7.2111 18.5645Z" fill="#652B2B"/>
<path d="M10.9126 18.5645L7.76562 25.2895H9.38654L10.0246 23.8712H13.7492L14.3872 25.2895H16.0082L12.8612 18.5645H10.9083H10.9126ZM10.585 22.634L11.8912 19.7413L13.1974 22.634H10.5893H10.585Z" fill="#652B2B"/>
<path d="M18.4592 20.2234C18.4894 20.7234 18.5023 21.1718 18.5023 21.5684C18.5023 22.4392 18.4074 23.0686 18.2264 23.4566C18.041 23.8403 17.7392 24.0342 17.3211 24.0342C17.1012 24.0342 16.8598 23.9825 16.6055 23.8834V25.1551C16.7736 25.237 16.959 25.3017 17.1616 25.3491C17.3642 25.3922 17.5668 25.4181 17.7694 25.4181C18.2824 25.4181 18.7006 25.293 19.0153 25.043C19.3343 24.793 19.5671 24.4007 19.7137 23.8704C19.8645 23.3402 19.9378 22.6504 19.9378 21.8012C19.9378 21.4477 19.9292 21.0726 19.9077 20.6717C19.8947 20.4303 19.8775 20.1759 19.8516 19.9173H23.1279V25.2974H24.6454V18.5723H18.3169C18.3816 19.1758 18.429 19.7276 18.4592 20.232V20.2234Z" fill="#652B2B"/>
<path d="M27.5146 23.798V18.5645H26.0273V25.2895H27.9543L31.7997 19.9741V25.2895H33.287V18.5645H31.304L27.5146 23.798Z" fill="#652B2B"/>
<path d="M34.1289 19.9095H36.8103V25.2895H38.3278V19.9095H40.9963V18.5645H34.1289V19.9095Z" fill="#652B2B"/>
<path d="M47.2273 21.2157H43.3733V18.5645H41.8516V25.2895H43.3733V22.5521H47.2273V25.2895H48.7534V18.5645H47.2273V21.2157Z" fill="#652B2B"/>
<path d="M51.6162 23.798V18.5645H50.1289V25.2895H52.0559L55.9013 19.9741V25.2895H57.3929V18.5645H55.4098L51.6162 23.798Z" fill="#652B2B"/>
<path d="M65.6408 18.5645H64.0156L60.2866 23.2117V18.5645H58.7734V25.2895H60.1443L62.3472 22.5909L63.9983 25.2895H65.7356L63.3172 21.4054L65.6408 18.5645Z" fill="#652B2B"/>
<path d="M71.6833 18.5645L67.8939 23.798V18.5645H66.4023V25.2895H68.3293L72.179 19.9741V25.2895H73.6663V18.5645H71.6833Z" fill="#652B2B"/>
<path d="M69.0961 13.6528C67.4838 13.2605 65.962 12.8854 65.4921 12.0017C65.2981 11.6396 65.2895 11.2128 65.4706 10.7257C66.1129 8.96247 66.1086 7.60021 65.4619 6.67767C64.7463 5.66028 63.2418 5.14297 60.9872 5.14297C58.0643 5.14297 54.6069 6.01378 52.7834 6.53972C52.3911 6.59145 52.0376 6.61731 51.7358 6.61731C49.8821 6.61731 49.852 5.61286 49.8132 4.4489C49.7701 3.08233 49.7183 1.3795 46.8774 0.262968C46.4334 0.0862185 45.9592 0 45.472 0C43.0665 0 40.5446 2.11237 38.3158 3.9747C36.5009 5.49215 34.9361 6.80268 33.6945 6.80268C32.9444 6.80268 32.384 6.32848 31.9831 5.32834C31.483 3.09958 29.9569 1.76749 27.9049 1.76749C26.6332 1.76749 25.2709 2.28049 23.9604 3.25046C23.3956 3.66862 22.6067 4.54375 21.7747 5.47491C20.1021 7.34156 18.2009 9.45392 16.8042 9.45392C16.2912 9.45392 15.886 9.17371 15.5885 8.6176C15.373 8.21668 15.2091 7.833 15.0626 7.49675C14.5366 6.28537 14.2219 5.55251 12.5148 5.55251C12.4156 5.55251 12.3079 5.55251 12.1958 5.56113C8.8591 5.72063 6.40617 8.78141 4.03945 11.7387C2.86256 13.2088 1.64687 14.7262 0.332031 15.8729H5.01804C5.50949 15.8557 6.50963 15.7996 7.02694 15.6445C7.72963 15.4289 8.4668 14.9676 9.13069 13.7994C9.79458 12.6311 9.99288 12.2172 10.0446 12.1224C10.0963 12.0276 10.2602 12.006 10.1998 12.2388C10.1395 12.4716 9.32468 14.4374 9.22553 14.709C9.12638 14.9806 8.99705 15.3513 9.07034 15.5453C9.14362 15.7393 9.32468 15.8729 9.65231 15.8729C9.65231 15.8729 13.377 15.8686 16.7525 15.8643C17.4767 15.8428 18.8691 15.7738 19.5416 15.5324C20.4728 15.1961 22.2748 13.7002 23.0249 12.9415C24.0207 11.9327 25.7624 9.82897 25.7624 9.82897C25.7624 9.82897 25.9262 9.58756 26.0598 9.71258C26.1934 9.8376 26.0124 10.01 26.0124 10.01C26.0124 10.01 22.6024 14.2951 22.1756 14.8124C21.7489 15.3298 21.6325 15.5625 21.6971 15.7005C21.7618 15.8384 21.8135 15.8729 22.5162 15.8729H29.6465C30.6165 15.8514 34.0135 15.7608 34.9145 15.5625C35.9664 15.3298 37.1346 14.2951 38.6909 12.4673C40.2472 10.6394 42.1181 8.35894 42.1181 8.35894C42.1181 8.35894 42.213 8.20374 42.2949 8.20374C42.4457 8.20374 42.4501 8.31583 42.2949 8.55293C42.1397 8.79004 38.6047 13.2777 37.8028 14.8642C37.7209 15.0194 37.4752 15.4936 37.6649 15.7005C37.846 15.8988 38.346 15.8772 38.678 15.8772H48.4207C48.6018 15.8772 49.8002 15.3772 51.4298 14.5495C53.124 13.6916 55.1156 12.4802 55.1156 12.4802L56.9952 11.3766C56.9952 11.3766 57.2065 11.2171 57.2754 11.3119C57.3444 11.3982 57.2668 11.4542 56.9349 11.7258C56.6029 11.9974 51.8824 15.1832 52.1152 15.0194C52.348 14.8555 51.3953 15.4936 51.3651 15.6617C51.3263 15.8772 51.516 15.8686 51.779 15.8729H73.6398C72.9113 14.584 70.8765 14.0882 69.0702 13.6485L69.0961 13.6528Z" fill="#63664C"/>
<path d="M69.0961 30.3287C67.4838 30.721 65.962 31.096 65.4921 31.9797C65.2981 32.3419 65.2895 32.7687 65.4705 33.2558C66.1129 35.019 66.1086 36.3812 65.4619 37.3038C64.7463 38.3212 63.2418 38.8385 60.9871 38.8385C58.0643 38.8385 54.6069 37.9677 52.7834 37.4417C52.3911 37.39 52.0376 37.3641 51.7358 37.3641C49.8821 37.3641 49.852 38.3686 49.8132 39.5325C49.77 40.8991 49.7183 42.6019 46.8774 43.7185C46.4334 43.8952 45.9592 43.9814 45.472 43.9814C43.0665 43.9814 40.5446 41.8691 38.3158 40.0067C36.5009 38.4893 34.9361 37.1788 33.6945 37.1788C32.9444 37.1788 32.384 37.653 31.9831 38.6531C31.483 40.8819 29.9569 42.214 27.9049 42.214C26.6332 42.214 25.2709 41.7009 23.9604 40.731C23.3956 40.3128 22.6067 39.4377 21.7747 38.5065C20.1021 36.6399 18.2009 34.5275 16.8042 34.5275C16.2912 34.5275 15.886 34.8077 15.5885 35.3638C15.3729 35.7648 15.2091 36.1484 15.0626 36.4847C14.5366 37.6961 14.2219 38.4289 12.5148 38.4289C12.4156 38.4289 12.3079 38.4289 12.1958 38.4203C8.8591 38.2608 6.40617 35.2 4.03945 32.2427C2.86256 30.7727 1.64687 29.2552 0.332031 28.1085H5.01804C5.50949 28.1258 6.50963 28.1818 7.02694 28.337C7.72963 28.5525 8.4668 29.0138 9.13069 30.1821C9.79457 31.3504 9.99288 31.7642 10.0446 31.859C10.0963 31.9539 10.2602 31.9754 10.1998 31.7426C10.1395 31.5099 9.32468 29.5441 9.22553 29.2725C9.12638 29.0009 8.99705 28.6301 9.07033 28.4361C9.14362 28.2422 9.32468 28.1085 9.65231 28.1085C9.65231 28.1085 13.377 28.1128 16.7525 28.1171C17.4767 28.1387 18.8691 28.2077 19.5416 28.4491C20.4728 28.7853 22.2748 30.2812 23.0249 31.04C24.0207 32.0487 25.7623 34.1525 25.7623 34.1525C25.7623 34.1525 25.9262 34.3939 26.0598 34.2689C26.1934 34.1438 26.0124 33.9714 26.0124 33.9714C26.0124 33.9714 22.6024 29.6863 22.1756 29.169C21.7488 28.6517 21.6325 28.4189 21.6971 28.281C21.7618 28.143 21.8135 28.1085 22.5162 28.1085H29.6465C30.6165 28.1301 34.0135 28.2206 34.9145 28.4189C35.9664 28.6517 37.1346 29.6863 38.6909 31.5142C40.2472 33.342 42.1181 35.6225 42.1181 35.6225C42.1181 35.6225 42.213 35.7777 42.2949 35.7777C42.4457 35.7777 42.4501 35.6656 42.2949 35.4285C42.1397 35.1914 38.6047 30.7037 37.8028 29.1173C37.7209 28.9621 37.4752 28.4879 37.6649 28.281C37.846 28.0826 38.346 28.1042 38.678 28.1042H48.4207C48.6018 28.1042 49.8002 28.6043 51.4298 29.432C53.124 30.2899 55.1156 31.5012 55.1156 31.5012L56.9952 32.6048C56.9952 32.6048 57.2064 32.7643 57.2754 32.6695C57.3444 32.5833 57.2668 32.5272 56.9349 32.2557C56.6029 31.9841 51.8824 28.7983 52.1152 28.9621C52.348 29.1259 51.3953 28.4879 51.3651 28.3198C51.3263 28.1042 51.516 28.1128 51.779 28.1085H73.6398C72.9112 29.3975 70.8765 29.8932 69.0702 30.333L69.0961 30.3287Z" fill="#63664C"/>
</svg>
